<svg width="39" height="39" viewBox="0 0 39 39" fill="none" xmlns="http://www.w3.org/2000/svg">
<path d="M19.7501 14.3367C17.0263 14.3367 14.8034 16.5596 14.8034 19.2834C14.8034 22.0073 17.0263 24.2301 19.7501 24.2301C22.4739 24.2301 24.6968 22.0073 24.6968 19.2834C24.6968 16.5596 22.4739 14.3367 19.7501 14.3367ZM34.5864 19.2834C34.5864 17.235 34.605 15.2051 34.49 13.1604C34.3749 10.7854 33.8331 8.67757 32.0964 6.94085C30.356 5.20042 28.2519 4.66233 25.8769 4.5473C23.8284 4.43226 21.7986 4.45081 19.7538 4.45081C17.7054 4.45081 15.6755 4.43226 13.6308 4.5473C11.2558 4.66233 9.14797 5.20413 7.41125 6.94085C5.67082 8.68128 5.13273 10.7854 5.01769 13.1604C4.90265 15.2088 4.92121 17.2387 4.92121 19.2834C4.92121 21.3282 4.90265 23.3617 5.01769 25.4065C5.13273 27.7815 5.67453 29.8893 7.41125 31.626C9.15168 33.3664 11.2558 33.9045 13.6308 34.0196C15.6792 34.1346 17.7091 34.116 19.7538 34.116C21.8023 34.116 23.8321 34.1346 25.8769 34.0196C28.2519 33.9045 30.3597 33.3627 32.0964 31.626C33.8368 29.8856 34.3749 27.7815 34.49 25.4065C34.6087 23.3617 34.5864 21.3319 34.5864 19.2834ZM19.7501 26.8946C15.5382 26.8946 12.139 23.4953 12.139 19.2834C12.139 15.0715 15.5382 11.6723 19.7501 11.6723C23.962 11.6723 27.3612 15.0715 27.3612 19.2834C27.3612 23.4953 23.962 26.8946 19.7501 26.8946ZM27.673 13.1381C26.6896 13.1381 25.8954 12.344 25.8954 11.3606C25.8954 10.3772 26.6896 9.58304 27.673 9.58304C28.6564 9.58304 29.4505 10.3772 29.4505 11.3606C29.4508 11.5941 29.405 11.8254 29.3158 12.0412C29.2266 12.257 29.0956 12.453 28.9305 12.6181C28.7654 12.7833 28.5693 12.9142 28.3535 13.0034C28.1378 13.0926 27.9065 13.1384 27.673 13.1381Z" fill="#9D1F64"/>
</svg>
