<svg width="33" height="33" viewBox="0 0 33 33" fill="none" xmlns="http://www.w3.org/2000/svg">
<path fill-rule="evenodd" clip-rule="evenodd" d="M2.08337 4.06737C2.08337 3.41741 2.34157 2.79408 2.80116 2.33449C3.26075 1.8749 3.88408 1.6167 4.53404 1.6167H28.9634C29.2855 1.61618 29.6045 1.67919 29.9022 1.80212C30.1999 1.92506 30.4705 2.10552 30.6984 2.33315C30.9263 2.56079 31.107 2.83113 31.2303 3.12872C31.3535 3.4263 31.4169 3.74527 31.4167 4.06737V28.4967C31.4171 28.8189 31.3539 29.1379 31.2308 29.4357C31.1077 29.7334 30.9271 30.0039 30.6994 30.2318C30.4717 30.4597 30.2012 30.6404 29.9036 30.7636C29.6059 30.8869 29.2869 30.9502 28.9647 30.95H4.53404C4.2121 30.95 3.89332 30.8866 3.5959 30.7634C3.29849 30.6401 3.02827 30.4595 2.80069 30.2318C2.5731 30.0041 2.39262 29.7338 2.26954 29.4363C2.14646 29.1388 2.0832 28.82 2.08337 28.498V4.06737ZM13.694 12.8007H17.666V14.7954C18.2394 13.6487 19.706 12.6167 21.91 12.6167C26.1354 12.6167 27.1367 14.9007 27.1367 19.0914V26.854H22.8607V20.046C22.8607 17.6594 22.2874 16.3127 20.8314 16.3127C18.8114 16.3127 17.9714 17.7647 17.9714 20.046V26.854H13.694V12.8007ZM6.36071 26.6714H10.638V12.6167H6.36071V26.67V26.6714ZM11.25 8.0327C11.2581 8.39893 11.1929 8.76309 11.0584 9.10379C10.9238 9.44449 10.7225 9.75488 10.4664 10.0167C10.2102 10.2786 9.90431 10.4867 9.56665 10.6287C9.22899 10.7708 8.86636 10.8439 8.50004 10.8439C8.13372 10.8439 7.77109 10.7708 7.43343 10.6287C7.09578 10.4867 6.78989 10.2786 6.53373 10.0167C6.27757 9.75488 6.0763 9.44449 5.94172 9.10379C5.80714 8.76309 5.74198 8.39893 5.75004 8.0327C5.76587 7.31384 6.06255 6.62976 6.57656 6.12695C7.09056 5.62414 7.78101 5.34259 8.50004 5.34259C9.21908 5.34259 9.90953 5.62414 10.4235 6.12695C10.9375 6.62976 11.2342 7.31384 11.25 8.0327Z" fill="#9D1F64"/>
</svg>
