<svg width="239" height="77" viewBox="0 0 239 77" fill="none" xmlns="http://www.w3.org/2000/svg">
<path d="M65.3684 27.861C65.3684 30.7532 66.226 33.5805 67.8329 35.9853C69.4397 38.39 71.7235 40.2643 74.3956 41.3711C77.0676 42.4779 80.0079 42.7675 82.8445 42.2033C85.6811 41.639 88.2867 40.2463 90.3318 38.2012C92.3769 36.1561 93.7696 33.5505 94.3339 30.7139C94.8981 27.8772 94.6085 24.937 93.5017 22.265C92.3949 19.5929 90.5206 17.3091 88.1159 15.7023C85.7111 14.0954 82.8838 13.2378 79.9916 13.2378L79.9916 22.0117C81.1485 22.0117 82.2794 22.3548 83.2413 22.9975C84.2032 23.6402 84.953 24.5538 85.3957 25.6226C85.8384 26.6914 85.9542 27.8675 85.7285 29.0022C85.5028 30.1368 84.9457 31.1791 84.1277 31.9971C83.3097 32.8151 82.2674 33.3722 81.1328 33.5979C79.9981 33.8236 78.822 33.7078 77.7532 33.2651C76.6844 32.8223 75.7709 32.0726 75.1281 31.1107C74.4854 30.1488 74.1423 29.0179 74.1423 27.861H65.3684Z" fill="#FF3737"/>
<path fill-rule="evenodd" clip-rule="evenodd" d="M65.9001 39.0078C65.2595 41.6197 65.1943 44.3516 65.7233 47.0114C66.4361 50.5945 68.1953 53.8858 70.7786 56.4691C73.3618 59.0524 76.6531 60.8116 80.2362 61.5243C83.8194 62.237 87.5333 61.8712 90.9086 60.4732C94.2838 59.0751 97.1686 56.7076 99.1983 53.67C101.228 50.6324 102.311 47.0611 102.311 43.4078L93.0756 43.4078C93.0756 45.2344 92.5339 47.0201 91.5191 48.5389C90.5042 50.0577 89.0618 51.2415 87.3742 51.9405C85.6866 52.6395 83.8296 52.8224 82.038 52.4661C80.2465 52.1097 78.6008 51.2301 77.3092 49.9384C76.0176 48.6468 75.1379 47.0011 74.7816 45.2096C74.768 45.1413 74.7552 45.073 74.7432 45.0045C71.2146 43.9395 68.1443 41.818 65.9001 39.0078Z" fill="#FF8E4E"/>
<path d="M48.0422 22.3423C51.7063 22.3423 54.5879 23.4807 56.6868 25.7575C58.7857 27.9987 59.8351 31.1292 59.8351 35.1492V52.4384H50.7636V36.2164C50.7636 34.3309 50.2478 32.8724 49.2161 31.8407C48.22 30.7735 46.8504 30.2399 45.1072 30.2399C43.2929 30.2399 41.8522 30.809 40.7849 31.9474C39.7533 33.0503 39.2374 34.6155 39.2374 36.6433V52.4384H30.1125V36.2164C30.1125 34.3309 29.6145 32.8724 28.6184 31.8407C27.6223 30.7735 26.2527 30.2399 24.5095 30.2399C22.6952 30.2399 21.2544 30.7913 20.1872 31.8941C19.12 32.9969 18.5864 34.58 18.5864 36.6433V52.4384H9.46146V22.6625H18.5864V27.7318C19.369 26.0598 20.5607 24.7436 22.1616 23.7831C23.798 22.8225 25.7013 22.3423 27.8713 22.3423C30.1481 22.3423 32.1581 22.8759 33.9012 23.9431C35.6444 24.9748 36.9607 26.4689 37.85 28.4255C38.8817 26.5757 40.2869 25.0993 42.0656 23.9965C43.8799 22.8937 45.8721 22.3423 48.0422 22.3423Z" fill="#9D1F64"/>
<path d="M125.992 22.3422C129.407 22.3422 132.111 23.4806 134.103 25.7573C136.13 28.0341 137.144 31.1647 137.144 35.149V52.4383H128.019V36.2163C128.019 34.2241 127.486 32.6766 126.419 31.5738C125.387 30.4354 123.999 29.8662 122.256 29.8662C120.406 29.8662 118.93 30.4532 117.827 31.6271C116.76 32.8011 116.226 34.4731 116.226 36.6432V52.4383H107.102V22.6623H116.226V28.1053C117.08 26.3265 118.343 24.9213 120.015 23.8897C121.723 22.858 123.715 22.3422 125.992 22.3422Z" fill="#9D1F64"/>
<path d="M159.666 44.5941V52.4383H155.557C152.071 52.4383 149.349 51.5845 147.393 49.8769C145.471 48.1338 144.511 45.27 144.511 41.2857V30.3465H140.509V22.6623H144.511V15.3517H153.636V22.6623H159.612V30.3465H153.636V41.4458C153.636 42.6197 153.867 43.4379 154.33 43.9004C154.828 44.3629 155.646 44.5941 156.784 44.5941H159.666Z" fill="#9D1F64"/>
<path d="M163.581 14.2845C163.581 12.8971 164.079 11.7587 165.076 10.8693C166.072 9.9444 167.388 9.48193 169.024 9.48193C170.661 9.48193 171.977 9.9444 172.973 10.8693C173.969 11.7587 174.467 12.8971 174.467 14.2845C174.467 15.6363 173.969 16.7747 172.973 17.6997C171.977 18.589 170.661 19.0337 169.024 19.0337C167.388 19.0337 166.072 18.589 165.076 17.6997C164.079 16.7747 163.581 15.6363 163.581 14.2845ZM173.56 22.6623V52.4383H164.435V22.6623H173.56Z" fill="#9D1F64"/>
<path d="M194.122 18.6068C192.628 18.6068 191.543 18.927 190.867 19.5673C190.191 20.2077 189.818 21.2394 189.746 22.6623H195.136V30.3465H189.746V52.4383H180.622V30.3465H177.046V22.6623H180.622V22.3422C180.622 18.6424 181.689 15.7964 183.823 13.8043C185.993 11.7765 189.124 10.7626 193.215 10.7626C194.069 10.7626 194.709 10.7804 195.136 10.816V18.6602L194.122 18.6068Z" fill="#9D1F64"/>
<path d="M205.671 22.6623L212.822 40.9121L219.492 22.6623H229.578L211.008 66.6326H200.976L207.966 51.3177L195.479 22.6623H205.671Z" fill="#9D1F64"/>
</svg>
