<svg width="28" height="28" viewBox="0 0 28 28" fill="none" xmlns="http://www.w3.org/2000/svg">
<path fill-rule="evenodd" clip-rule="evenodd" d="M8.79981 23.2772C9.63281 23.2772 10.3106 23.9539 10.3106 24.7869C10.3106 25.6199 9.63281 26.2977 8.79981 26.2977C7.96681 26.2977 7.29014 25.6199 7.29014 24.7869C7.29014 23.9539 7.96681 23.2772 8.79981 23.2772ZM21.9602 23.2772C22.7943 23.2772 23.4722 23.9539 23.4722 24.7869C23.4722 25.6199 22.7943 26.2977 21.9602 26.2977C21.1272 26.2977 20.4505 25.6199 20.4505 24.7869C20.4505 23.9539 21.1272 23.2772 21.9602 23.2772ZM3.81138 3.51107L6.23805 3.93107C6.62888 3.9999 6.92638 4.32423 6.96021 4.7209L7.23438 7.98874L8.25387 7.98917C8.42023 7.98925 8.58483 7.98932 8.74769 7.9894L10.6194 7.99029C10.7686 7.99036 10.9161 7.99044 11.062 7.99051L13.1286 7.99164C13.2584 7.99172 13.3867 7.9918 13.5134 7.99187L14.9617 7.9928C15.0764 7.99287 15.1897 7.99295 15.3015 7.99303L16.5753 7.99397C16.6758 7.99405 16.775 7.99413 16.8729 7.9942L17.9835 7.99516C18.0708 7.99524 18.1569 7.99532 18.2417 7.9954L18.9717 7.99612C19.0491 7.99621 19.1254 7.99629 19.2005 7.99637L20.0458 7.99735C20.1117 7.99743 20.1765 7.99751 20.2403 7.9976L20.954 7.99859C21.0093 7.99868 21.0636 7.99876 21.117 7.99884L21.5706 7.9996C21.6181 7.99969 21.6647 7.99977 21.7104 7.99986L22.2157 8.00088C22.2543 8.00097 22.2921 8.00105 22.3291 8.00114L22.6401 8.00192C22.6723 8.002 22.7037 8.00209 22.7344 8.00218L23.0677 8.00323C23.0927 8.00332 23.117 8.0034 23.1407 8.00349L23.3365 8.00429C23.3563 8.00438 23.3757 8.00447 23.3944 8.00456L23.5924 8.00564C23.6068 8.00573 23.6206 8.00582 23.634 8.00591L23.742 8.00673C23.7526 8.00682 23.7628 8.00691 23.7726 8.007L23.8503 8.00783C23.8578 8.00792 23.865 8.00802 23.8718 8.00811L23.9247 8.00895C23.9297 8.00904 23.9344 8.00913 23.9388 8.00923L23.9722 8.01007C23.9753 8.01017 23.9781 8.01026 23.9808 8.01036L24.005 8.0115C24.0065 8.01159 24.0079 8.01169 24.0092 8.01179C24.0205 8.01285 24.0222 8.01304 24.0239 8.01324C24.6737 8.10774 25.2454 8.44724 25.635 8.9699C26.0247 9.4914 26.188 10.1342 26.0947 10.7782L24.9875 18.4292C24.7787 19.8852 23.514 20.9831 22.044 20.9831H9.30288C7.76638 20.9831 6.46554 19.7837 6.34071 18.2496L5.27205 5.5399L3.51388 5.23657C3.03671 5.15257 2.71821 4.70107 2.79988 4.2239C2.88388 3.74673 3.34471 3.4364 3.81138 3.51107ZM8.01982 9.73913L7.38138 9.73874L8.08488 18.1061C8.13621 18.7501 8.66238 19.2331 9.30521 19.2331H22.0417C22.6495 19.2331 23.1687 18.7804 23.255 18.1796L24.3634 10.5274C24.389 10.3454 24.3435 10.1634 24.2327 10.0164C24.123 9.86824 23.962 9.77257 23.78 9.7469C23.7716 9.74722 23.7515 9.74752 23.7202 9.74779L23.5933 9.74851C23.5667 9.74862 23.5375 9.74872 23.5058 9.74882L22.8448 9.74982C22.7891 9.74986 22.7311 9.7499 22.671 9.74993L21.117 9.74986C21.0303 9.74983 20.9419 9.74979 20.852 9.74975L19.0786 9.74868C18.9723 9.7486 18.8649 9.74852 18.7564 9.74844L17.7529 9.74763C17.6386 9.74754 17.5234 9.74744 17.4075 9.74734L16.3446 9.74641C16.2245 9.7463 16.1039 9.74619 15.9828 9.74608L15.2506 9.7454C15.1278 9.74529 15.0046 9.74518 14.8811 9.74506L13.7637 9.74402C13.6392 9.7439 13.5145 9.74378 13.3898 9.74367L12.6424 9.74297C12.518 9.74286 12.3938 9.74274 12.2698 9.74263L11.5287 9.74196C11.4058 9.74185 11.2832 9.74174 11.1611 9.74163L10.0755 9.74069C9.95662 9.7406 9.83835 9.7405 9.72079 9.7404L8.34888 9.73936C8.23817 9.73928 8.12846 9.73921 8.01982 9.73913ZM20.1679 12.3011C20.6509 12.3011 21.0429 12.6931 21.0429 13.1761C21.0429 13.6591 20.6509 14.0511 20.1679 14.0511H16.9339C16.4498 14.0511 16.0589 13.6591 16.0589 13.1761C16.0589 12.6931 16.4498 12.3011 16.9339 12.3011H20.1679Z" fill="black"/>
</svg>
