<svg width="176" height="56" viewBox="0 0 176 56" fill="none" xmlns="http://www.w3.org/2000/svg">
<path d="M9.76933 44.8002C10.0528 44.8664 10.2765 45.0033 10.4404 45.2108C10.6087 45.4182 10.6928 45.6588 10.6928 45.9325C10.6928 46.3342 10.5577 46.6476 10.2875 46.8727C10.0218 47.0979 9.63867 47.2104 9.13817 47.2104H6.95235V42.5291H9.08502C9.56337 42.5291 9.93321 42.6328 10.1945 42.8403C10.4559 43.0478 10.5865 43.3435 10.5865 43.7276C10.5865 44.0101 10.5112 44.2462 10.3606 44.4361C10.21 44.6215 10.0129 44.7428 9.76933 44.8002ZM8.08844 44.4427H8.83255C9.22675 44.4427 9.42385 44.2749 9.42385 43.9394C9.42385 43.604 9.22232 43.4362 8.81926 43.4362H8.08844V44.4427ZM8.89899 46.2901C9.31976 46.2901 9.53015 46.1179 9.53015 45.7736C9.53015 45.6058 9.47479 45.4756 9.36406 45.3829C9.25333 45.2858 9.09609 45.2372 8.89234 45.2372H8.08844V46.2901H8.89899Z" fill="#9D1F64"/>
<path d="M12.1499 43.5157L13.0402 45.7802L13.8707 43.5157H15.1264L12.8143 48.9717H11.5653L12.4356 47.0714L10.881 43.5157H12.1499Z" fill="#9D1F64"/>
<path d="M18.453 47.2493C18.1377 47.2493 17.841 47.2051 17.5628 47.1168C17.2846 47.024 17.0411 46.8871 16.8325 46.706C16.6285 46.5204 16.4662 46.2907 16.3456 46.0169C16.2297 45.7386 16.1718 45.4161 16.1718 45.0495C16.1718 44.6873 16.232 44.367 16.3526 44.0887C16.4731 43.806 16.6354 43.5697 16.8394 43.3797C17.0481 43.1854 17.2892 43.0374 17.5628 42.9358C17.8363 42.8342 18.1238 42.7834 18.4252 42.7834C18.7591 42.7834 19.0465 42.8408 19.2877 42.9557C19.5334 43.0661 19.7374 43.1986 19.8997 43.3532L19.2737 44.0821C19.1625 43.9893 19.0442 43.9142 18.919 43.8568C18.7985 43.795 18.6478 43.764 18.4669 43.764C18.3139 43.764 18.1725 43.7928 18.0427 43.8502C17.9129 43.9076 17.7993 43.9893 17.7019 44.0953C17.6045 44.2014 17.528 44.3317 17.4724 44.4863C17.4214 44.6409 17.3959 44.8154 17.3959 45.0097C17.3959 45.4161 17.4909 45.7275 17.681 45.944C17.8711 46.1604 18.1702 46.2687 18.5782 46.2687C18.6431 46.2687 18.7057 46.262 18.766 46.2488C18.8309 46.2355 18.8843 46.2157 18.926 46.1891V45.5928H18.2583V44.6652H19.9832V46.7192C19.8209 46.865 19.6053 46.9909 19.3363 47.0969C19.0674 47.1985 18.773 47.2493 18.453 47.2493Z" fill="#9D1F64"/>
<path d="M20.4873 47.1698V43.8568H21.6836V47.1698H20.4873Z" fill="#9D1F64"/>
<path d="M22.0876 47.1698V46.5602L23.4091 44.7447H22.2406V43.8568H24.8975V44.4664L23.576 46.2819H24.9392V47.1698H22.0876Z" fill="#9D1F64"/>
<path d="M26.2135 47.2493C26.0513 47.2493 25.9052 47.2228 25.7754 47.1698C25.6455 47.1124 25.5343 47.0373 25.4415 46.9445C25.3534 46.8517 25.2862 46.7435 25.2398 46.6198C25.1935 46.4961 25.1703 46.3658 25.1703 46.2289C25.1703 45.8844 25.3187 45.6149 25.6154 45.4205C25.9122 45.2218 26.3944 45.0892 27.0621 45.023C27.0343 44.7933 26.872 44.6784 26.5752 44.6784C26.45 44.6784 26.3179 44.7027 26.1788 44.7513C26.0397 44.7955 25.8797 44.864 25.6989 44.9567L25.2816 44.2146C25.5273 44.0733 25.7754 43.965 26.0258 43.8899C26.2761 43.8148 26.5381 43.7773 26.8117 43.7773C27.2615 43.7773 27.6138 43.901 27.8689 44.1484C28.1285 44.3913 28.2584 44.7844 28.2584 45.3278V47.1698H27.2846L27.2012 46.8517H27.1734C27.0343 46.971 26.8859 47.0682 26.7282 47.1433C26.5752 47.214 26.4037 47.2493 26.2135 47.2493ZM26.6309 46.3747C26.7282 46.3747 26.8071 46.3548 26.8673 46.315C26.9322 46.2709 26.9972 46.2157 27.0621 46.1494V45.6988C26.7746 45.7386 26.5775 45.7982 26.4709 45.8777C26.3642 45.9572 26.3109 46.0434 26.3109 46.1361C26.3109 46.2952 26.4176 46.3747 26.6309 46.3747Z" fill="#9D1F64"/>
<path d="M29.6573 47.2493C29.4532 47.2493 29.2817 47.2206 29.1426 47.1632C29.0081 47.1013 28.8991 47.0152 28.8157 46.9047C28.7322 46.7943 28.6719 46.664 28.6349 46.5138C28.6024 46.3592 28.5862 46.1891 28.5862 46.0036V42.5581H29.7824V46.0434C29.7824 46.1582 29.8033 46.2355 29.845 46.2753C29.8914 46.315 29.9355 46.3349 29.9772 46.3349C30.0004 46.3349 30.0189 46.3349 30.0328 46.3349C30.0514 46.3349 30.0746 46.3305 30.1024 46.3217C30.1024 46.3217 30.3064 47.13 30.2415 47.1565C30.1766 47.183 30.0954 47.2051 29.9981 47.2228C29.9053 47.2405 29.7917 47.2493 29.6573 47.2493Z" fill="#9D1F64"/>
<path d="M31.4576 47.2493C31.2953 47.2493 31.1493 47.2228 31.0194 47.1698C30.8896 47.1124 30.7783 47.0373 30.6856 46.9445C30.5975 46.8517 30.5303 46.7435 30.4839 46.6198C30.4375 46.4961 30.4143 46.3658 30.4143 46.2289C30.4143 45.8844 30.5627 45.6149 30.8595 45.4205C31.1562 45.2218 31.6384 45.0892 32.3061 45.023C32.2783 44.7933 32.116 44.6784 31.8193 44.6784C31.6941 44.6784 31.5619 44.7027 31.4228 44.7513C31.2837 44.7955 31.1238 44.864 30.9429 44.9567L30.5256 44.2146C30.7714 44.0733 31.0194 43.965 31.2698 43.8899C31.5202 43.8148 31.7822 43.7773 32.0557 43.7773C32.5055 43.7773 32.8579 43.901 33.1129 44.1484C33.3726 44.3913 33.5024 44.7844 33.5024 45.3278V47.1698H32.5287L32.4452 46.8517H32.4174C32.2783 46.971 32.1299 47.0682 31.9723 47.1433C31.8193 47.214 31.6477 47.2493 31.4576 47.2493ZM31.8749 46.3747C31.9723 46.3747 32.0511 46.3548 32.1114 46.315C32.1763 46.2709 32.2412 46.2157 32.3061 46.1494V45.6988C32.0187 45.7386 31.8216 45.7982 31.7149 45.8777C31.6083 45.9572 31.555 46.0434 31.555 46.1361C31.555 46.2952 31.6616 46.3747 31.8749 46.3747Z" fill="#9D1F64"/>
<path d="M35.7638 47.2493C35.6107 47.2493 35.46 47.214 35.3117 47.1433C35.1633 47.0682 35.0219 46.9578 34.8874 46.812H34.8596L34.7622 47.1698H33.8302V42.5581H35.0265V43.6315L34.9987 44.1086C35.1192 44.0026 35.2537 43.9209 35.4021 43.8634C35.5505 43.806 35.7012 43.7773 35.8542 43.7773C36.0582 43.7773 36.2437 43.8171 36.4106 43.8966C36.5775 43.9761 36.7189 44.0887 36.8348 44.2345C36.9554 44.3803 37.0481 44.557 37.113 44.7646C37.178 44.9722 37.2104 45.2019 37.2104 45.4537C37.2104 45.7408 37.1687 45.997 37.0852 46.2223C37.0064 46.4431 36.8998 46.6309 36.7653 46.7855C36.6308 46.9357 36.4755 47.0505 36.2993 47.13C36.1277 47.2095 35.9492 47.2493 35.7638 47.2493ZM35.4716 46.3217C35.6107 46.3217 35.7313 46.2598 35.8333 46.1361C35.9353 46.0125 35.9863 45.7916 35.9863 45.4735C35.9863 45.1997 35.9446 45.0031 35.8611 44.8838C35.7823 44.7646 35.6617 44.7049 35.4995 44.7049C35.4067 44.7049 35.3233 44.7226 35.2491 44.7579C35.1795 44.7933 35.1053 44.8551 35.0265 44.9435V46.1626C35.0961 46.2245 35.1679 46.2664 35.2421 46.2885C35.3163 46.3106 35.3928 46.3217 35.4716 46.3217Z" fill="#9D1F64"/>
<path d="M20.4072 42.8787C20.4072 42.7112 20.4678 42.5726 20.589 42.4631C20.7102 42.3535 20.8703 42.2987 21.0694 42.2987C21.2685 42.2987 21.4286 42.3535 21.5498 42.4631C21.671 42.5726 21.7316 42.7112 21.7316 42.8787C21.7316 43.042 21.671 43.1784 21.5498 43.2879C21.4286 43.3975 21.2685 43.4523 21.0694 43.4523C20.8703 43.4523 20.7102 43.3975 20.589 43.2879C20.4678 43.1784 20.4072 43.042 20.4072 42.8787Z" fill="#9D1F64"/>
<ellipse cx="38.0725" cy="46.6304" rx="0.618784" ry="0.618822" fill="#9D1F64"/>
<path d="M48.1374 20.5182C48.1374 22.6482 48.769 24.7303 49.9522 26.5013C51.1355 28.2723 52.8173 29.6526 54.785 30.4677C56.7527 31.2828 58.9179 31.4961 61.0068 31.0805C63.0957 30.665 65.0145 29.6393 66.5205 28.1332C68.0265 26.6271 69.0521 24.7082 69.4676 22.6192C69.8831 20.5302 69.6699 18.3648 68.8548 16.397C68.0398 14.4292 66.6595 12.7473 64.8887 11.5639C63.1178 10.3806 61.0358 9.74899 58.906 9.74899L58.906 16.2105C59.7579 16.2105 60.5907 16.4632 61.299 16.9365C62.0074 17.4098 62.5595 18.0826 62.8855 18.8697C63.2115 19.6569 63.2968 20.523 63.1306 21.3586C62.9644 22.1942 62.5542 22.9618 61.9518 23.5642C61.3494 24.1667 60.5819 24.5769 59.7463 24.7431C58.9107 24.9094 58.0447 24.824 57.2576 24.498C56.4705 24.172 55.7978 23.6198 55.3245 22.9114C54.8512 22.2031 54.5985 21.3702 54.5985 20.5182L48.1374 20.5182Z" fill="#FF3737"/>
<path fill-rule="evenodd" clip-rule="evenodd" d="M48.5289 28.7272C48.0572 30.6508 48.0092 32.6627 48.3988 34.6215C48.9236 37.2602 50.2191 39.6841 52.1214 41.5865C54.0238 43.489 56.4475 44.7846 59.0861 45.3094C61.7247 45.8343 64.4597 45.5649 66.9452 44.5353C69.4307 43.5057 71.5551 41.7622 73.0498 39.5251C74.5444 37.2881 75.3422 34.6581 75.3422 31.9676L68.541 31.9676C68.541 33.3128 68.1421 34.6278 67.3948 35.7464C66.6475 36.8649 65.5853 37.7367 64.3425 38.2515C63.0998 38.7663 61.7323 38.901 60.413 38.6385C59.0936 38.3761 57.8818 37.7283 56.9306 36.7771C55.9795 35.8258 55.3317 34.6139 55.0693 33.2945C55.0593 33.2442 55.0499 33.1939 55.041 33.1435C52.4426 32.3591 50.1816 30.7968 48.5289 28.7272Z" fill="#FF8E4E"/>
<path d="M35.3783 16.4539C38.0766 16.4539 40.1986 17.2922 41.7443 18.9689C43.2899 20.6195 44.0627 22.925 44.0627 25.8854V38.6181H37.3824V26.6714C37.3824 25.2829 37.0026 24.2087 36.2428 23.4489C35.5093 22.663 34.5007 22.27 33.2171 22.27C31.881 22.27 30.82 22.6892 30.0341 23.5275C29.2744 24.3397 28.8945 25.4925 28.8945 26.9858V38.6181H22.1749V26.6714C22.1749 25.2829 21.8082 24.2087 21.0746 23.4489C20.3411 22.663 19.3325 22.27 18.0489 22.27C16.7128 22.27 15.6518 22.6761 14.8659 23.4882C14.08 24.3004 13.687 25.4663 13.687 26.9858V38.6181H6.96744V16.6896H13.687V20.423C14.2634 19.1916 15.141 18.2223 16.3198 17.5149C17.5249 16.8075 18.9265 16.4539 20.5245 16.4539C22.2011 16.4539 23.6813 16.8468 24.9649 17.6328C26.2486 18.3926 27.2179 19.4929 27.8728 20.9339C28.6325 19.5715 29.6673 18.4843 30.9772 17.6721C32.3133 16.8599 33.7803 16.4539 35.3783 16.4539Z" fill="#9D1F64"/>
<path d="M92.7805 16.4539C95.2954 16.4539 97.2864 17.2923 98.7534 18.969C100.247 20.6457 100.993 22.9512 100.993 25.8855V38.6181H94.2737V26.6715C94.2737 25.2043 93.8808 24.0647 93.0948 23.2525C92.3351 22.4141 91.3134 21.995 90.0298 21.995C88.6675 21.995 87.5803 22.4272 86.7682 23.2918C85.9823 24.1564 85.5893 25.3877 85.5893 26.9858V38.6181H78.8697V16.6897H85.5893V20.6981C86.2181 19.3882 87.1481 18.3533 88.3793 17.5936C89.6368 16.8338 91.1038 16.4539 92.7805 16.4539Z" fill="#9D1F64"/>
<path d="M117.578 32.8413V38.6181H114.552C111.985 38.6181 109.981 37.9894 108.54 36.7318C107.125 35.4481 106.418 33.3391 106.418 30.4048V22.3486H103.471V16.6897H106.418V11.3058H113.138V16.6897H117.539V22.3486H113.138V30.5227C113.138 31.3872 113.308 31.9898 113.649 32.3304C114.015 32.671 114.618 32.8413 115.456 32.8413H117.578Z" fill="#9D1F64"/>
<path d="M120.462 10.5199C120.462 9.49812 120.828 8.65976 121.562 8.00479C122.295 7.32362 123.265 6.98303 124.47 6.98303C125.675 6.98303 126.644 7.32362 127.378 8.00479C128.111 8.65976 128.478 9.49812 128.478 10.5199C128.478 11.5154 128.111 12.3538 127.378 13.035C126.644 13.6899 125.675 14.0174 124.47 14.0174C123.265 14.0174 122.295 13.6899 121.562 13.035C120.828 12.3538 120.462 11.5154 120.462 10.5199ZM127.81 16.6897V38.6181H121.09V16.6897H127.81Z" fill="#9D1F64"/>
<path d="M142.952 13.703C141.852 13.703 141.053 13.9388 140.555 14.4104C140.057 14.882 139.782 15.6417 139.73 16.6897H143.698V22.3486H139.73V38.6181H133.01V22.3486H130.377V16.6897H133.01V16.4539C133.01 13.7292 133.796 11.6333 135.368 10.1662C136.966 8.67286 139.271 7.92619 142.284 7.92619C142.913 7.92619 143.384 7.93929 143.698 7.96549V13.7423L142.952 13.703Z" fill="#9D1F64"/>
<path d="M151.457 16.6897L156.722 30.1297L161.634 16.6897H169.061L155.386 49.0715H147.999L153.146 37.7929L143.951 16.6897H151.457Z" fill="#9D1F64"/>
<path d="M170.976 11.3989H170.055V13.9055H169.435V11.3989H168.526V10.8968H170.976V11.3989Z" fill="#9D1F64"/>
<path d="M172.142 10.8968L172.915 13.0789L173.683 10.8968H174.497V13.9055H173.876V13.0831L173.938 11.6634L173.125 13.9055H172.7L171.89 11.6655L171.952 13.0831V13.9055H171.332V10.8968H172.142Z" fill="#9D1F64"/>
</svg>
