<svg width="71" height="23" viewBox="0 0 71 23" fill="none" xmlns="http://www.w3.org/2000/svg">
<path d="M19.4199 8.18427C19.4199 9.03385 19.6747 9.86436 20.152 10.5708C20.6294 11.2772 21.3078 11.8278 22.1016 12.1529C22.8954 12.478 23.7689 12.5631 24.6116 12.3973C25.4542 12.2316 26.2283 11.8225 26.8358 11.2217C27.4434 10.621 27.8571 9.85556 28.0247 9.02229C28.1923 8.18903 28.1063 7.32533 27.7775 6.54041C27.4487 5.7555 26.8919 5.08462 26.1775 4.61261C25.4631 4.1406 24.6232 3.88867 23.7641 3.88867L23.7641 6.46603C24.1077 6.46603 24.4437 6.5668 24.7294 6.7556C25.0152 6.94441 25.2379 7.21276 25.3694 7.52672C25.501 7.84069 25.5354 8.18617 25.4683 8.51948C25.4013 8.85278 25.2358 9.15894 24.9928 9.39924C24.7498 9.63954 24.4401 9.80319 24.1031 9.86949C23.766 9.93579 23.4166 9.90176 23.0991 9.77171C22.7816 9.64166 22.5102 9.42143 22.3193 9.13887C22.1283 8.8563 22.0264 8.5241 22.0264 8.18427L19.4199 8.18427Z" fill="white"/>
<path fill-rule="evenodd" clip-rule="evenodd" d="M19.5779 11.4586C19.3876 12.2259 19.3682 13.0284 19.5254 13.8098C19.7371 14.8623 20.2597 15.8291 21.0271 16.588C21.7945 17.3468 22.7723 17.8636 23.8367 18.073C24.9012 18.2823 26.0045 18.1749 27.0072 17.7642C28.0098 17.3535 28.8668 16.658 29.4698 15.7657C30.0728 14.8734 30.3946 13.8244 30.3946 12.7512L27.6509 12.7512C27.6509 13.2878 27.49 13.8123 27.1885 14.2585C26.887 14.7046 26.4585 15.0524 25.9572 15.2577C25.4559 15.463 24.9042 15.5168 24.372 15.4121C23.8398 15.3074 23.3509 15.049 22.9672 14.6696C22.5835 14.2902 22.3222 13.8068 22.2163 13.2805C22.2123 13.2604 22.2085 13.2404 22.2049 13.2203C21.1567 12.9074 20.2446 12.2841 19.5779 11.4586Z" fill="white"/>
<path d="M14.2718 6.56299C15.3603 6.56299 16.2163 6.89739 16.8398 7.5662C17.4634 8.22455 17.7751 9.14416 17.7751 10.325V15.4038H15.0802V10.6385C15.0802 10.0847 14.927 9.65622 14.6205 9.35316C14.3246 9.03966 13.9177 8.88291 13.3999 8.88291C12.8609 8.88291 12.4329 9.05011 12.1159 9.38451C11.8094 9.70847 11.6561 10.1683 11.6561 10.7639V15.4038H8.94539V10.6385C8.94539 10.0847 8.79744 9.65622 8.50153 9.35316C8.20562 9.03966 7.79874 8.88291 7.2809 8.88291C6.74192 8.88291 6.31391 9.04489 5.99686 9.36884C5.67982 9.69279 5.52129 10.1578 5.52129 10.7639V15.4038H2.81055V6.65704H5.52129V8.14618C5.75379 7.65502 6.10783 7.26837 6.5834 6.98622C7.06953 6.70406 7.63493 6.56299 8.27959 6.56299C8.95596 6.56299 9.55306 6.71974 10.0709 7.03324C10.5887 7.3363 10.9798 7.7752 11.244 8.34995C11.5505 7.80655 11.9679 7.37287 12.4963 7.04892C13.0353 6.72496 13.6271 6.56299 14.2718 6.56299Z" fill="white"/>
<path d="M37.4281 6.56287C38.4427 6.56287 39.2458 6.89727 39.8377 7.56608C40.44 8.23488 40.7412 9.15449 40.7412 10.3249V15.4036H38.0305V10.6384C38.0305 10.0532 37.872 9.59862 37.5549 9.27467C37.2485 8.94026 36.8363 8.77306 36.3185 8.77306C35.7689 8.77306 35.3303 8.94549 35.0027 9.29034C34.6857 9.63519 34.5271 10.1263 34.5271 10.7638V15.4036H31.8164V6.65692H34.5271V8.25578C34.7808 7.73328 35.156 7.3205 35.6527 7.01745C36.1599 6.71439 36.7517 6.56287 37.4281 6.56287Z" fill="white"/>
<path d="M47.4317 13.0994V15.4036H46.2111C45.1754 15.4036 44.3669 15.1528 43.7857 14.6512C43.215 14.1392 42.9297 13.298 42.9297 12.1275V8.91414H41.7407V6.65692H42.9297V4.50942H45.6404V6.65692H47.4158V8.91414H45.6404V12.1746C45.6404 12.5194 45.7091 12.7598 45.8465 12.8956C45.9944 13.0315 46.2375 13.0994 46.5757 13.0994H47.4317Z" fill="white"/>
<path d="M48.5949 4.19592C48.5949 3.78837 48.7429 3.45396 49.0388 3.19271C49.3347 2.92101 49.7257 2.78516 50.2118 2.78516C50.698 2.78516 51.089 2.92101 51.3849 3.19271C51.6808 3.45396 51.8288 3.78837 51.8288 4.19592C51.8288 4.59302 51.6808 4.92743 51.3849 5.19913C51.089 5.46038 50.698 5.59101 50.2118 5.59101C49.7257 5.59101 49.3347 5.46038 49.0388 5.19913C48.7429 4.92743 48.5949 4.59302 48.5949 4.19592ZM51.5593 6.65692V15.4036H48.8486V6.65692H51.5593Z" fill="white"/>
<path d="M57.6677 5.46561C57.2238 5.46561 56.9015 5.55966 56.7007 5.74776C56.4999 5.93586 56.3889 6.23891 56.3678 6.65692H57.9689V8.91414H56.3678V15.4036H53.657V8.91414H52.5949V6.65692H53.657V6.56287C53.657 5.47606 53.9741 4.64005 54.6082 4.05484C55.2528 3.45919 56.1828 3.16136 57.3982 3.16136C57.6518 3.16136 57.842 3.16659 57.9689 3.17704V5.48128L57.6677 5.46561Z" fill="white"/>
<path d="M61.0986 6.65692L63.2228 12.0178L65.2044 6.65692H68.2005L62.6839 19.5732H59.7036L61.7803 15.0745L58.0709 6.65692H61.0986Z" fill="white"/>
</svg>
