<svg width="24" height="25" viewBox="0 0 24 25" fill="none" xmlns="http://www.w3.org/2000/svg">
<path d="M18.031 16.9139L22.314 21.1959L20.899 22.6109L16.617 18.3279C15.0237 19.6051 13.042 20.2998 11 20.2969C6.032 20.2969 2 16.2649 2 11.2969C2 6.32888 6.032 2.29688 11 2.29688C15.968 2.29688 20 6.32888 20 11.2969C20.0029 13.3389 19.3082 15.3206 18.031 16.9139ZM16.025 16.1719C17.2941 14.8668 18.0029 13.1173 18 11.2969C18 7.42887 14.867 4.29688 11 4.29688C7.132 4.29688 4 7.42887 4 11.2969C4 15.1639 7.132 18.2969 11 18.2969C12.8204 18.2997 14.5699 17.591 15.875 16.3219L16.025 16.1719Z" fill="#929598"/>
</svg>
