<svg width="41" height="40" viewBox="0 0 41 40" fill="none" xmlns="http://www.w3.org/2000/svg">
<path d="M8.83331 14.9983C8.83331 18.1683 10.1083 21.0433 12.1666 23.1483V34.9999C12.1666 35.5783 12.4666 36.1133 12.9566 36.4183C13.4483 36.7249 14.0633 36.7483 14.5783 36.4916L20.5 33.5299L26.4216 36.4899C26.6566 36.6083 26.9116 36.6666 27.1666 36.6666C27.4716 36.6666 27.775 36.5833 28.0416 36.4183C28.5333 36.1133 28.8333 35.5783 28.8333 34.9999V23.1499C30.8916 21.0449 32.1666 18.1699 32.1666 14.9983C32.1666 8.56659 26.9333 3.33325 20.5 3.33325C14.0666 3.33325 8.83331 8.56659 8.83331 14.9983ZM21.245 30.1749C20.7766 29.9399 20.2233 29.9399 19.7533 30.1749L15.5 32.3033V25.5249C17.0183 26.2483 18.71 26.6666 20.5 26.6666C22.29 26.6666 23.9816 26.2499 25.5 25.5249V32.3016L21.245 30.1749ZM20.5 6.66659C25.0933 6.66659 28.8333 10.4033 28.8333 14.9983C28.8333 19.5949 25.095 23.3333 20.5 23.3333C15.905 23.3333 12.1666 19.5949 12.1666 14.9983C12.1666 10.4033 15.905 6.66659 20.5 6.66659Z" fill="#9D1F64"/>
</svg>
