<svg width="41" height="41" viewBox="0 0 41 41" fill="none" xmlns="http://www.w3.org/2000/svg">
<path d="M33.8333 12.3697H27.1667V7.36971C27.1667 5.53138 25.6717 4.03638 23.8333 4.03638H17.1667C15.3283 4.03638 13.8333 5.53138 13.8333 7.36971V15.703H7.16668C5.32834 15.703 3.83334 17.198 3.83334 19.0364V34.0364C3.83334 34.9564 4.57834 35.703 5.50001 35.703H15.5H25.5H35.5C36.4217 35.703 37.1667 34.9564 37.1667 34.0364V15.703C37.1667 13.8647 35.6717 12.3697 33.8333 12.3697ZM7.16668 19.0364H13.8333V32.3697H7.16668V19.0364ZM17.1667 17.3697V7.36971H23.8333V14.0364V32.3697H17.1667V17.3697ZM33.8333 32.3697H27.1667V15.703H33.8333V32.3697Z" fill="#9D1F64"/>
</svg>
