<svg width="41" height="41" viewBox="0 0 41 41" fill="none" xmlns="http://www.w3.org/2000/svg">
<path d="M17.1667 29.0365L27.1667 20.7032L17.1667 12.3699V29.0365Z" fill="#9D1F64"/>
<path d="M20.5 4.03638C11.31 4.03638 3.83333 11.513 3.83333 20.703C3.83333 29.893 11.31 37.3697 20.5 37.3697C29.69 37.3697 37.1667 29.893 37.1667 20.703C37.1667 11.513 29.69 4.03638 20.5 4.03638ZM20.5 34.0364C13.1483 34.0364 7.16666 28.0547 7.16666 20.703C7.16666 13.3514 13.1483 7.36971 20.5 7.36971C27.8517 7.36971 33.8333 13.3514 33.8333 20.703C33.8333 28.0547 27.8517 34.0364 20.5 34.0364Z" fill="#9D1F64"/>
</svg>
